<svg width="238" height="118" viewBox="0 0 238 118" fill="none" xmlns="http://www.w3.org/2000/svg">
<g clip-path="url(#clip0_4_190)">
<path d="M59 102C82.7482 102 102 82.7482 102 59C102 35.2518 82.7482 16 59 16C35.2518 16 16 35.2518 16 59C16 82.7482 35.2518 102 59 102Z" stroke="black" stroke-width="9"/>
<path d="M105 62L110 59L105 56V62Z" fill="black" stroke="black" stroke-width="3" stroke-linejoin="round"/>
<path d="M103.531 70.9165L109.02 68.9496L104.701 65.0318L103.531 70.9165Z" fill="black" stroke="black" stroke-width="3" stroke-linejoin="round"/>
<path d="M100.35 79.3751L106.118 78.5169L102.647 73.8318L100.35 79.3751Z" fill="black" stroke="black" stroke-width="3" stroke-linejoin="round"/>
<path d="M95.5809 87.0506L101.405 87.3341L98.9143 82.0618L95.5809 87.0506Z" fill="black" stroke="black" stroke-width="3" stroke-linejoin="round"/>
<path d="M89.4056 93.6482L95.0624 95.0624L93.6482 89.4056L89.4056 93.6482Z" fill="black" stroke="black" stroke-width="3" stroke-linejoin="round"/>
<path d="M82.0618 98.9143L87.3341 101.405L87.0507 95.5809L82.0618 98.9143Z" fill="black" stroke="black" stroke-width="3" stroke-linejoin="round"/>
<path d="M73.8318 102.647L78.5168 106.118L79.3751 100.35L73.8318 102.647Z" fill="black" stroke="black" stroke-width="3" stroke-linejoin="round"/>
<path d="M65.0318 104.701L68.9496 109.02L70.9165 103.531L65.0318 104.701Z" fill="black" stroke="black" stroke-width="3" stroke-linejoin="round"/>
<path d="M56 105L59 110L62 105H56Z" fill="black" stroke="black" stroke-width="3" stroke-linejoin="round"/>
<path d="M47.0835 103.531L49.0504 109.02L52.9682 104.701L47.0835 103.531Z" fill="black" stroke="black" stroke-width="3" stroke-linejoin="round"/>
<path d="M38.6249 100.35L39.4831 106.118L44.1682 102.647L38.6249 100.35Z" fill="black" stroke="black" stroke-width="3" stroke-linejoin="round"/>
<path d="M30.9494 95.5809L30.6659 101.405L35.9382 98.9143L30.9494 95.5809Z" fill="black" stroke="black" stroke-width="3" stroke-linejoin="round"/>
<path d="M24.3518 89.4056L22.9376 95.0624L28.5944 93.6482L24.3518 89.4056Z" fill="black" stroke="black" stroke-width="3" stroke-linejoin="round"/>
<path d="M19.0857 82.0618L16.5951 87.3341L22.4191 87.0506L19.0857 82.0618Z" fill="black" stroke="black" stroke-width="3" stroke-linejoin="round"/>
<path d="M15.3535 73.8318L11.8821 78.5169L17.6496 79.3751L15.3535 73.8318Z" fill="black" stroke="black" stroke-width="3" stroke-linejoin="round"/>
<path d="M13.2986 65.0318L8.97995 68.9496L14.4691 70.9165L13.2986 65.0318Z" fill="black" stroke="black" stroke-width="3" stroke-linejoin="round"/>
<path d="M13 56L8 59L13 62V56Z" fill="black" stroke="black" stroke-width="3" stroke-linejoin="round"/>
<path d="M14.4692 47.0835L8.97996 49.0504L13.2986 52.9682L14.4692 47.0835Z" fill="black" stroke="black" stroke-width="3" stroke-linejoin="round"/>
<path d="M17.6496 38.6249L11.8821 39.4831L15.3535 44.1682L17.6496 38.6249Z" fill="black" stroke="black" stroke-width="3" stroke-linejoin="round"/>
<path d="M22.4191 30.9494L16.5951 30.6659L19.0857 35.9382L22.4191 30.9494Z" fill="black" stroke="black" stroke-width="3" stroke-linejoin="round"/>
<path d="M28.5944 24.3518L22.9376 22.9376L24.3518 28.5944L28.5944 24.3518Z" fill="black" stroke="black" stroke-width="3" stroke-linejoin="round"/>
<path d="M35.9382 19.0857L30.6659 16.5951L30.9494 22.4191L35.9382 19.0857Z" fill="black" stroke="black" stroke-width="3" stroke-linejoin="round"/>
<path d="M44.1682 15.3535L39.4831 11.8821L38.6249 17.6496L44.1682 15.3535Z" fill="black" stroke="black" stroke-width="3" stroke-linejoin="round"/>
<path d="M52.9682 13.2986L49.0504 8.97995L47.0835 14.4691L52.9682 13.2986Z" fill="black" stroke="black" stroke-width="3" stroke-linejoin="round"/>
<path d="M62 13L59 8L56 13L62 13Z" fill="black" stroke="black" stroke-width="3" stroke-linejoin="round"/>
<path d="M70.9165 14.4692L68.9496 8.97996L65.0318 13.2986L70.9165 14.4692Z" fill="black" stroke="black" stroke-width="3" stroke-linejoin="round"/>
<path d="M79.3751 17.6496L78.5168 11.8821L73.8318 15.3535L79.3751 17.6496Z" fill="black" stroke="black" stroke-width="3" stroke-linejoin="round"/>
<path d="M87.0506 22.4191L87.3341 16.5951L82.0618 19.0857L87.0506 22.4191Z" fill="black" stroke="black" stroke-width="3" stroke-linejoin="round"/>
<path d="M93.6482 28.5944L95.0624 22.9376L89.4056 24.3518L93.6482 28.5944Z" fill="black" stroke="black" stroke-width="3" stroke-linejoin="round"/>
<path d="M98.9143 35.9382L101.405 30.6659L95.5809 30.9494L98.9143 35.9382Z" fill="black" stroke="black" stroke-width="3" stroke-linejoin="round"/>
<path d="M102.647 44.1682L106.118 39.4831L100.35 38.6249L102.647 44.1682Z" fill="black" stroke="black" stroke-width="3" stroke-linejoin="round"/>
<path d="M104.701 52.9682L109.02 49.0504L103.531 47.0835L104.701 52.9682Z" fill="black" stroke="black" stroke-width="3" stroke-linejoin="round"/>
<path d="M52 17L59 24L66 17H52Z" fill="black" stroke="black" stroke-width="6" stroke-linejoin="round"/>
<path d="M96.7812 39.3639L92.287 48.1844L101.107 52.6787L96.7812 39.3639Z" fill="black" stroke="black" stroke-width="6" stroke-linejoin="round"/>
<path d="M89.3501 88.8642L79.5725 87.3156L78.0239 97.0932L89.3501 88.8642Z" fill="black" stroke="black" stroke-width="6" stroke-linejoin="round"/>
<path d="M39.9761 97.0932L38.4275 87.3156L28.6499 88.8642L39.9761 97.0932Z" fill="black" stroke="black" stroke-width="6" stroke-linejoin="round"/>
<path d="M16.8925 52.6787L25.713 48.1844L21.2187 39.3639L16.8925 52.6787Z" fill="black" stroke="black" stroke-width="6" stroke-linejoin="round"/>
<path d="M23.6323 56.744V44.072H59.0083V56.744H52.2403V50.168H30.4003V56.744H23.6323ZM32.1763 77V70.904H50.4643V77H32.1763ZM37.4563 73.112V47.432H45.2323V73.112H37.4563ZM81.2019 77.624C79.6659 77.624 78.1939 77.416 76.7859 77C75.4099 76.552 74.0819 75.944 72.8019 75.176C71.5219 74.408 70.2899 73.528 69.1059 72.536C67.9219 71.512 66.7699 70.44 65.6499 69.32L69.6819 69.752V76.952H62.9139V64.952L67.7139 64.712C68.5779 65.768 69.5539 66.712 70.6419 67.544C71.7299 68.376 72.8659 69.096 74.0499 69.704C75.2339 70.28 76.3859 70.728 77.5059 71.048C78.6579 71.368 79.7139 71.528 80.6739 71.528C81.4419 71.528 82.1139 71.448 82.6899 71.288C83.2659 71.096 83.7139 70.808 84.0339 70.424C84.3539 70.04 84.5139 69.576 84.5139 69.032C84.5139 68.52 84.3219 68.04 83.938 67.592C83.5539 67.144 82.9459 66.712 82.1139 66.296C81.3139 65.848 80.2419 65.4 78.8979 64.952C77.5539 64.472 75.9219 63.976 74.0019 63.464C71.4419 62.76 69.3459 61.912 67.7139 60.92C66.0819 59.928 64.8819 58.776 64.1139 57.464C63.3459 56.12 62.9619 54.584 62.9619 52.856C62.9619 50.904 63.5059 49.224 64.5939 47.816C65.6819 46.408 67.0739 45.32 68.7699 44.552C70.4979 43.784 72.3219 43.4 74.2419 43.4C76.1619 43.4 77.9379 43.704 79.5699 44.312C81.2339 44.888 82.7539 45.816 84.13 47.096C85.5059 48.344 86.7059 49.976 87.7299 51.992L84.13 51.32V44.072H90.8979V55.736L86.338 55.976C85.634 54.568 84.7219 53.384 83.6019 52.424C82.4819 51.464 81.2819 50.744 80.0019 50.264C78.7219 49.752 77.4579 49.496 76.2099 49.496C75.2179 49.496 74.3379 49.624 73.5699 49.88C72.8019 50.104 72.1939 50.44 71.7459 50.888C71.2979 51.336 71.0739 51.88 71.0739 52.52C71.0739 52.968 71.2179 53.384 71.5059 53.768C71.7939 54.12 72.2419 54.472 72.8499 54.824C73.4899 55.176 74.3379 55.544 75.3939 55.928C76.4499 56.28 77.7459 56.664 79.2819 57.08C81.7139 57.784 83.9379 58.616 85.9539 59.576C87.9699 60.504 89.5859 61.672 90.802 63.08C92.018 64.456 92.6259 66.168 92.6259 68.216C92.6259 70.2 92.1299 71.896 91.1379 73.304C90.1459 74.712 88.7859 75.784 87.058 76.52C85.3299 77.256 83.3779 77.624 81.2019 77.624Z" fill="black"/>
</g>
<path d="M124.156 47H120.875V37.548H117.917V34.862H127.114V37.548H124.156V47ZM131.905 35.916C131.905 36.6073 131.888 37.191 131.854 37.667C131.82 38.143 131.792 38.5057 131.769 38.755H131.922C132.126 38.4263 132.353 38.1657 132.602 37.973C132.863 37.7803 133.152 37.6443 133.469 37.565C133.787 37.4743 134.132 37.429 134.506 37.429C135.13 37.429 135.691 37.548 136.189 37.786C136.688 38.024 137.085 38.398 137.379 38.908C137.685 39.4067 137.838 40.064 137.838 40.88V47H134.574V41.866C134.574 41.2427 134.484 40.7723 134.302 40.455C134.121 40.1377 133.838 39.979 133.452 39.979C133.067 39.979 132.761 40.0923 132.534 40.319C132.308 40.5457 132.143 40.8743 132.041 41.305C131.951 41.7243 131.905 42.2457 131.905 42.869V47H128.658V34.08H131.905V35.916ZM144.28 37.429C145.198 37.429 145.986 37.5877 146.643 37.905C147.312 38.2223 147.822 38.6983 148.173 39.333C148.536 39.9677 148.717 40.7667 148.717 41.73V43.175H142.92C142.943 43.6623 143.124 44.0647 143.464 44.382C143.815 44.6993 144.32 44.858 144.977 44.858C145.566 44.858 146.105 44.8013 146.592 44.688C147.079 44.5747 147.584 44.3933 148.105 44.144V46.473C147.652 46.711 147.153 46.8867 146.609 47C146.076 47.1133 145.402 47.17 144.586 47.17C143.634 47.17 142.784 47.0057 142.036 46.677C141.299 46.337 140.716 45.81 140.285 45.096C139.854 44.382 139.639 43.4697 139.639 42.359C139.639 41.2257 139.832 40.2963 140.217 39.571C140.614 38.8457 141.158 38.3073 141.849 37.956C142.552 37.6047 143.362 37.429 144.28 37.429ZM144.399 39.639C144.014 39.639 143.691 39.758 143.43 39.996C143.181 40.234 143.033 40.6137 142.988 41.135H145.776C145.776 40.8517 145.719 40.6023 145.606 40.387C145.504 40.1603 145.351 39.979 145.147 39.843C144.943 39.707 144.694 39.639 144.399 39.639ZM162.605 47L162.01 44.722H158.066L157.454 47H153.85L157.811 34.811H162.18L166.192 47H162.605ZM160.803 40.047C160.746 39.8317 160.667 39.5257 160.565 39.129C160.463 38.721 160.361 38.3017 160.259 37.871C160.157 37.4403 160.077 37.089 160.021 36.817C159.975 37.089 159.902 37.429 159.8 37.837C159.709 38.245 159.613 38.6473 159.511 39.044C159.42 39.4407 159.341 39.775 159.273 40.047L158.746 42.036H161.33L160.803 40.047ZM173.189 37.429C174.163 37.429 174.957 37.701 175.569 38.245C176.181 38.789 176.487 39.6673 176.487 40.88V47H173.24V41.866C173.24 41.2427 173.149 40.7723 172.968 40.455C172.786 40.1377 172.497 39.979 172.101 39.979C171.489 39.979 171.075 40.2283 170.86 40.727C170.656 41.2257 170.554 41.9453 170.554 42.886V47H167.307V37.599H169.755L170.197 38.84H170.316C170.52 38.5453 170.758 38.296 171.03 38.092C171.313 37.8767 171.63 37.7123 171.982 37.599C172.344 37.4857 172.747 37.429 173.189 37.429ZM183.302 44.603C183.597 44.603 183.863 44.5747 184.101 44.518C184.351 44.45 184.606 44.3707 184.866 44.28V46.643C184.515 46.7903 184.141 46.915 183.744 47.017C183.348 47.119 182.843 47.17 182.231 47.17C181.619 47.17 181.081 47.0737 180.616 46.881C180.163 46.6883 179.806 46.3597 179.545 45.895C179.285 45.419 179.154 44.756 179.154 43.906V40.03H178.015V38.704L179.46 37.684L180.293 35.712H182.418V37.599H184.73V40.03H182.418V43.685C182.418 43.991 182.492 44.2233 182.639 44.382C182.798 44.5293 183.019 44.603 183.302 44.603ZM189.779 37.599V47H186.532V37.599H189.779ZM188.164 33.808C188.628 33.808 189.031 33.9043 189.371 34.097C189.722 34.2897 189.898 34.675 189.898 35.253C189.898 35.8083 189.722 36.188 189.371 36.392C189.031 36.5847 188.628 36.681 188.164 36.681C187.688 36.681 187.28 36.5847 186.94 36.392C186.611 36.188 186.447 35.8083 186.447 35.253C186.447 34.675 186.611 34.2897 186.94 34.097C187.28 33.9043 187.688 33.808 188.164 33.808ZM201.019 42.274C201.019 43.056 200.911 43.753 200.696 44.365C200.481 44.977 200.169 45.4927 199.761 45.912C199.353 46.32 198.86 46.6317 198.282 46.847C197.704 47.0623 197.047 47.17 196.31 47.17C195.63 47.17 195.001 47.0623 194.423 46.847C193.856 46.6317 193.363 46.32 192.944 45.912C192.536 45.4927 192.213 44.977 191.975 44.365C191.748 43.753 191.635 43.056 191.635 42.274C191.635 41.2313 191.822 40.353 192.196 39.639C192.581 38.9137 193.125 38.364 193.828 37.99C194.531 37.616 195.375 37.429 196.361 37.429C197.268 37.429 198.067 37.616 198.758 37.99C199.461 38.364 200.01 38.9137 200.407 39.639C200.815 40.353 201.019 41.2313 201.019 42.274ZM194.933 42.274C194.933 42.8067 194.978 43.26 195.069 43.634C195.16 44.008 195.307 44.2913 195.511 44.484C195.726 44.6653 196.004 44.756 196.344 44.756C196.684 44.756 196.95 44.6653 197.143 44.484C197.347 44.2913 197.494 44.008 197.585 43.634C197.676 43.26 197.721 42.8067 197.721 42.274C197.721 41.7413 197.676 41.2937 197.585 40.931C197.494 40.5683 197.347 40.2963 197.143 40.115C196.939 39.9337 196.667 39.843 196.327 39.843C195.84 39.843 195.483 40.047 195.256 40.455C195.041 40.863 194.933 41.4693 194.933 42.274ZM204.524 42.206L201.651 37.599H205.34L206.768 40.234L208.23 37.599H211.919L208.978 42.206L212.038 47H208.349L206.768 44.144L205.187 47H201.498L204.524 42.206ZM124.156 65H120.875V55.548H117.917V52.862H127.114V55.548H124.156V65ZM127.187 55.599H130.604L132.202 60.988C132.225 61.0673 132.247 61.1637 132.27 61.277C132.293 61.3903 132.31 61.5093 132.321 61.634C132.344 61.7587 132.355 61.8833 132.355 62.008H132.423C132.446 61.7813 132.474 61.5887 132.508 61.43C132.553 61.26 132.593 61.1183 132.627 61.005L134.259 55.599H137.574L133.851 65.595C133.568 66.3543 133.233 66.9947 132.848 67.516C132.474 68.0373 132.009 68.4283 131.454 68.689C130.899 68.9497 130.207 69.08 129.38 69.08C129.085 69.08 128.83 69.063 128.615 69.029C128.4 69.0063 128.213 68.978 128.054 68.944V66.394C128.179 66.4167 128.326 66.4393 128.496 66.462C128.677 66.4847 128.864 66.496 129.057 66.496C129.42 66.496 129.709 66.4223 129.924 66.275C130.151 66.1277 130.338 65.935 130.485 65.697C130.632 65.4703 130.757 65.221 130.859 64.949L130.893 64.864L127.187 55.599ZM144.448 55.429C145.491 55.429 146.307 55.8483 146.896 56.687C147.485 57.5143 147.78 58.71 147.78 60.274C147.78 61.3393 147.627 62.2403 147.321 62.977C147.026 63.7023 146.618 64.252 146.097 64.626C145.587 64.9887 145.003 65.17 144.346 65.17C143.904 65.17 143.53 65.1133 143.224 65C142.918 64.8867 142.663 64.7507 142.459 64.592C142.255 64.422 142.085 64.252 141.949 64.082H141.847C141.87 64.2973 141.892 64.5297 141.915 64.779C141.938 65.0283 141.949 65.3173 141.949 65.646V69.08H138.702V55.599H141.337L141.796 56.789H141.949C142.108 56.5397 142.295 56.313 142.51 56.109C142.737 55.905 143.009 55.7407 143.326 55.616C143.643 55.4913 144.017 55.429 144.448 55.429ZM143.224 57.979C142.907 57.979 142.657 58.0583 142.476 58.217C142.295 58.3643 142.164 58.5853 142.085 58.88C142.006 59.1747 141.96 59.5487 141.949 60.002V60.257C141.949 60.7557 141.983 61.175 142.051 61.515C142.13 61.855 142.266 62.1157 142.459 62.297C142.652 62.467 142.912 62.552 143.241 62.552C143.513 62.552 143.74 62.4783 143.921 62.331C144.114 62.1723 144.255 61.923 144.346 61.583C144.437 61.243 144.482 60.7953 144.482 60.24C144.482 59.4127 144.374 58.829 144.159 58.489C143.944 58.149 143.632 57.979 143.224 57.979ZM153.859 55.429C154.777 55.429 155.565 55.5877 156.222 55.905C156.891 56.2223 157.401 56.6983 157.752 57.333C158.115 57.9677 158.296 58.7667 158.296 59.73V61.175H152.499C152.522 61.6623 152.703 62.0647 153.043 62.382C153.394 62.6993 153.899 62.858 154.556 62.858C155.145 62.858 155.684 62.8013 156.171 62.688C156.658 62.5747 157.163 62.3933 157.684 62.144V64.473C157.231 64.711 156.732 64.8867 156.188 65C155.655 65.1133 154.981 65.17 154.165 65.17C153.213 65.17 152.363 65.0057 151.615 64.677C150.878 64.337 150.295 63.81 149.864 63.096C149.433 62.382 149.218 61.4697 149.218 60.359C149.218 59.2257 149.411 58.2963 149.796 57.571C150.193 56.8457 150.737 56.3073 151.428 55.956C152.131 55.6047 152.941 55.429 153.859 55.429ZM153.978 57.639C153.593 57.639 153.27 57.758 153.009 57.996C152.76 58.234 152.612 58.6137 152.567 59.135H155.355C155.355 58.8517 155.298 58.6023 155.185 58.387C155.083 58.1603 154.93 57.979 154.726 57.843C154.522 57.707 154.273 57.639 153.978 57.639ZM168.261 61.311C168.261 61.9683 168.091 62.5917 167.751 63.181C167.422 63.7703 166.906 64.252 166.204 64.626C165.512 64.9887 164.611 65.17 163.501 65.17C162.945 65.17 162.458 65.1417 162.039 65.085C161.631 65.0397 161.245 64.9603 160.883 64.847C160.52 64.7337 160.146 64.5863 159.761 64.405V61.481C160.418 61.8097 161.081 62.0647 161.75 62.246C162.418 62.416 163.025 62.501 163.569 62.501C163.897 62.501 164.164 62.4613 164.368 62.382C164.572 62.3027 164.725 62.195 164.827 62.059C164.929 61.923 164.98 61.77 164.98 61.6C164.98 61.3847 164.906 61.2033 164.759 61.056C164.611 60.9087 164.379 60.7557 164.062 60.597C163.744 60.4383 163.319 60.24 162.787 60.002C162.333 59.798 161.925 59.5827 161.563 59.356C161.2 59.1293 160.888 58.8743 160.628 58.591C160.378 58.3077 160.186 57.979 160.05 57.605C159.914 57.2197 159.846 56.7663 159.846 56.245C159.846 55.463 160.038 54.8113 160.424 54.29C160.809 53.7573 161.342 53.3607 162.022 53.1C162.713 52.828 163.512 52.692 164.419 52.692C165.212 52.692 165.926 52.7827 166.561 52.964C167.195 53.134 167.762 53.3323 168.261 53.559L167.258 56.092C166.736 55.854 166.221 55.667 165.711 55.531C165.212 55.3837 164.747 55.31 164.317 55.31C164.033 55.31 163.801 55.344 163.62 55.412C163.438 55.48 163.302 55.5763 163.212 55.701C163.132 55.8143 163.093 55.9447 163.093 56.092C163.093 56.2847 163.166 56.4547 163.314 56.602C163.461 56.7493 163.705 56.9137 164.045 57.095C164.396 57.265 164.872 57.486 165.473 57.758C166.062 58.0187 166.561 58.3077 166.969 58.625C167.388 58.931 167.705 59.2993 167.921 59.73C168.147 60.1493 168.261 60.6763 168.261 61.311ZM174.23 65.17C173.278 65.17 172.451 65 171.748 64.66C171.046 64.32 170.502 63.793 170.116 63.079C169.731 62.365 169.538 61.4527 169.538 60.342C169.538 59.1973 169.754 58.268 170.184 57.554C170.615 56.8287 171.199 56.296 171.935 55.956C172.683 55.6047 173.533 55.429 174.485 55.429C175.063 55.429 175.607 55.4913 176.117 55.616C176.639 55.7407 177.12 55.9163 177.562 56.143L176.61 58.54C176.225 58.37 175.862 58.234 175.522 58.132C175.194 58.03 174.848 57.979 174.485 57.979C174.157 57.979 173.868 58.064 173.618 58.234C173.369 58.404 173.176 58.6647 173.04 59.016C172.904 59.356 172.836 59.7923 172.836 60.325C172.836 60.869 172.904 61.3053 173.04 61.634C173.188 61.9627 173.386 62.2063 173.635 62.365C173.885 62.5123 174.174 62.586 174.502 62.586C174.967 62.586 175.432 62.5123 175.896 62.365C176.372 62.2177 176.82 62.0137 177.239 61.753V64.337C176.854 64.5863 176.418 64.7903 175.93 64.949C175.443 65.0963 174.876 65.17 174.23 65.17ZM184.788 55.429C184.97 55.429 185.157 55.4403 185.349 55.463C185.542 55.4857 185.684 55.5083 185.774 55.531L185.485 58.591C185.372 58.5683 185.23 58.5457 185.06 58.523C184.902 58.5003 184.675 58.489 184.38 58.489C184.176 58.489 183.955 58.5117 183.717 58.557C183.491 58.591 183.27 58.6703 183.054 58.795C182.85 58.9197 182.68 59.1067 182.544 59.356C182.42 59.6053 182.357 59.9453 182.357 60.376V65H179.11V55.599H181.524L182.034 57.095H182.187C182.357 56.789 182.578 56.5113 182.85 56.262C183.122 56.0013 183.423 55.7973 183.751 55.65C184.091 55.5027 184.437 55.429 184.788 55.429ZM190.343 55.599V65H187.096V55.599H190.343ZM188.728 51.808C189.193 51.808 189.595 51.9043 189.935 52.097C190.286 52.2897 190.462 52.675 190.462 53.253C190.462 53.8083 190.286 54.188 189.935 54.392C189.595 54.5847 189.193 54.681 188.728 54.681C188.252 54.681 187.844 54.5847 187.504 54.392C187.175 54.188 187.011 53.8083 187.011 53.253C187.011 52.675 187.175 52.2897 187.504 52.097C187.844 51.9043 188.252 51.808 188.728 51.808ZM198.353 55.429C199.396 55.429 200.212 55.8483 200.801 56.687C201.391 57.5143 201.685 58.71 201.685 60.274C201.685 61.3393 201.532 62.2403 201.226 62.977C200.932 63.7023 200.524 64.252 200.002 64.626C199.492 64.9887 198.909 65.17 198.251 65.17C197.809 65.17 197.435 65.1133 197.129 65C196.823 64.8867 196.568 64.7507 196.364 64.592C196.16 64.422 195.99 64.252 195.854 64.082H195.752C195.775 64.2973 195.798 64.5297 195.82 64.779C195.843 65.0283 195.854 65.3173 195.854 65.646V69.08H192.607V55.599H195.242L195.701 56.789H195.854C196.013 56.5397 196.2 56.313 196.415 56.109C196.642 55.905 196.914 55.7407 197.231 55.616C197.549 55.4913 197.923 55.429 198.353 55.429ZM197.129 57.979C196.812 57.979 196.563 58.0583 196.381 58.217C196.2 58.3643 196.07 58.5853 195.99 58.88C195.911 59.1747 195.866 59.5487 195.854 60.002V60.257C195.854 60.7557 195.888 61.175 195.956 61.515C196.036 61.855 196.172 62.1157 196.364 62.297C196.557 62.467 196.818 62.552 197.146 62.552C197.418 62.552 197.645 62.4783 197.826 62.331C198.019 62.1723 198.161 61.923 198.251 61.583C198.342 61.243 198.387 60.7953 198.387 60.24C198.387 59.4127 198.28 58.829 198.064 58.489C197.849 58.149 197.537 57.979 197.129 57.979ZM208.138 62.603C208.433 62.603 208.699 62.5747 208.937 62.518C209.187 62.45 209.442 62.3707 209.702 62.28V64.643C209.351 64.7903 208.977 64.915 208.58 65.017C208.184 65.119 207.679 65.17 207.067 65.17C206.455 65.17 205.917 65.0737 205.452 64.881C204.999 64.6883 204.642 64.3597 204.381 63.895C204.121 63.419 203.99 62.756 203.99 61.906V58.03H202.851V56.704L204.296 55.684L205.129 53.712H207.254V55.599H209.566V58.03H207.254V61.685C207.254 61.991 207.328 62.2233 207.475 62.382C207.634 62.5293 207.855 62.603 208.138 62.603ZM118.801 83V70.862H122.082V80.348H126.757V83H118.801ZM131.773 73.599V83H128.526V73.599H131.773ZM130.158 69.808C130.622 69.808 131.025 69.9043 131.365 70.097C131.716 70.2897 131.892 70.675 131.892 71.253C131.892 71.8083 131.716 72.188 131.365 72.392C131.025 72.5847 130.622 72.681 130.158 72.681C129.682 72.681 129.274 72.5847 128.934 72.392C128.605 72.188 128.441 71.8083 128.441 71.253C128.441 70.675 128.605 70.2897 128.934 70.097C129.274 69.9043 129.682 69.808 130.158 69.808ZM137.284 73.004C137.284 73.3327 137.273 73.65 137.25 73.956C137.227 74.262 137.199 74.5453 137.165 74.806H137.284C137.522 74.4207 137.839 74.0977 138.236 73.837C138.633 73.565 139.148 73.429 139.783 73.429C140.758 73.429 141.557 73.8427 142.18 74.67C142.803 75.4973 143.115 76.6987 143.115 78.274C143.115 79.3393 142.968 80.2403 142.673 80.977C142.39 81.7023 141.987 82.252 141.466 82.626C140.956 82.9887 140.361 83.17 139.681 83.17C139.024 83.17 138.519 83.0567 138.168 82.83C137.817 82.592 137.522 82.3427 137.284 82.082H137.08L136.57 83H134.037V70.08H137.284V73.004ZM138.593 75.979C138.298 75.979 138.049 76.0527 137.845 76.2C137.652 76.336 137.511 76.5457 137.42 76.829C137.329 77.1123 137.284 77.4807 137.284 77.934V78.393C137.284 79.1183 137.38 79.6623 137.573 80.025C137.777 80.3763 138.128 80.552 138.627 80.552C139.012 80.552 139.307 80.3593 139.511 79.974C139.715 79.5773 139.817 78.9993 139.817 78.24C139.817 77.492 139.715 76.931 139.511 76.557C139.318 76.1717 139.012 75.979 138.593 75.979ZM150.639 73.429C150.82 73.429 151.007 73.4403 151.2 73.463C151.393 73.4857 151.534 73.5083 151.625 73.531L151.336 76.591C151.223 76.5683 151.081 76.5457 150.911 76.523C150.752 76.5003 150.526 76.489 150.231 76.489C150.027 76.489 149.806 76.5117 149.568 76.557C149.341 76.591 149.12 76.6703 148.905 76.795C148.701 76.9197 148.531 77.1067 148.395 77.356C148.27 77.6053 148.208 77.9453 148.208 78.376V83H144.961V73.599H147.375L147.885 75.095H148.038C148.208 74.789 148.429 74.5113 148.701 74.262C148.973 74.0013 149.273 73.7973 149.602 73.65C149.942 73.5027 150.288 73.429 150.639 73.429ZM157.188 73.429C158.378 73.429 159.307 73.7237 159.976 74.313C160.644 74.9023 160.979 75.741 160.979 76.829V83H158.735L158.106 81.759H158.038C157.777 82.0877 157.505 82.3597 157.222 82.575C156.95 82.779 156.632 82.9263 156.27 83.017C155.907 83.119 155.465 83.17 154.944 83.17C154.4 83.17 153.912 83.0623 153.482 82.847C153.051 82.6203 152.711 82.286 152.462 81.844C152.212 81.3907 152.088 80.8183 152.088 80.127C152.088 79.1183 152.433 78.3703 153.125 77.883C153.827 77.3957 154.842 77.1237 156.168 77.067L157.732 77.016V76.88C157.732 76.4607 157.63 76.166 157.426 75.996C157.222 75.8147 156.944 75.724 156.593 75.724C156.219 75.724 155.805 75.792 155.352 75.928C154.898 76.0527 154.439 76.217 153.975 76.421L153.04 74.279C153.584 73.9957 154.196 73.786 154.876 73.65C155.567 73.5027 156.338 73.429 157.188 73.429ZM157.001 78.835C156.411 78.8577 155.992 78.9653 155.743 79.158C155.505 79.3393 155.386 79.6 155.386 79.94C155.386 80.2573 155.471 80.4953 155.641 80.654C155.811 80.8013 156.037 80.875 156.321 80.875C156.717 80.875 157.052 80.7503 157.324 80.501C157.607 80.2517 157.749 79.9287 157.749 79.532V78.801L157.001 78.835ZM168.867 73.429C169.049 73.429 169.236 73.4403 169.428 73.463C169.621 73.4857 169.763 73.5083 169.853 73.531L169.564 76.591C169.451 76.5683 169.309 76.5457 169.139 76.523C168.981 76.5003 168.754 76.489 168.459 76.489C168.255 76.489 168.034 76.5117 167.796 76.557C167.57 76.591 167.349 76.6703 167.133 76.795C166.929 76.9197 166.759 77.1067 166.623 77.356C166.499 77.6053 166.436 77.9453 166.436 78.376V83H163.189V73.599H165.603L166.113 75.095H166.266C166.436 74.789 166.657 74.5113 166.929 74.262C167.201 74.0013 167.502 73.7973 167.83 73.65C168.17 73.5027 168.516 73.429 168.867 73.429ZM170.019 73.599H173.436L175.034 78.988C175.057 79.0673 175.08 79.1637 175.102 79.277C175.125 79.3903 175.142 79.5093 175.153 79.634C175.176 79.7587 175.187 79.8833 175.187 80.008H175.255C175.278 79.7813 175.306 79.5887 175.34 79.43C175.386 79.26 175.425 79.1183 175.459 79.005L177.091 73.599H180.406L176.683 83.595C176.4 84.3543 176.066 84.9947 175.68 85.516C175.306 86.0373 174.842 86.4283 174.286 86.689C173.731 86.9497 173.04 87.08 172.212 87.08C171.918 87.08 171.663 87.063 171.447 87.029C171.232 87.0063 171.045 86.978 170.886 86.944V84.394C171.011 84.4167 171.158 84.4393 171.328 84.462C171.51 84.4847 171.697 84.496 171.889 84.496C172.252 84.496 172.541 84.4223 172.756 84.275C172.983 84.1277 173.17 83.935 173.317 83.697C173.465 83.4703 173.589 83.221 173.691 82.949L173.725 82.864L170.019 73.599Z" fill="black"/>
<defs>
<clipPath id="clip0_4_190">
<rect width="106" height="106" fill="white" transform="translate(6 6)"/>
</clipPath>
</defs>
</svg>
