<svg width="106" height="106" viewBox="0 0 106 106" fill="none" xmlns="http://www.w3.org/2000/svg">
<g clip-path="url(#clip0_1_2)">
<path d="M53 96C76.7482 96 96 76.7482 96 53C96 29.2518 76.7482 10 53 10C29.2518 10 10 29.2518 10 53C10 76.7482 29.2518 96 53 96Z" stroke="#3178C6" stroke-width="9"/>
<path d="M99 56L104 53L99 50V56Z" fill="#3178C6" stroke="#3178C6" stroke-width="3" stroke-linejoin="round"/>
<path d="M97.5309 64.9165L103.02 62.9496L98.7014 59.0318L97.5309 64.9165Z" fill="#3178C6" stroke="#3178C6" stroke-width="3" stroke-linejoin="round"/>
<path d="M94.3504 73.3751L100.118 72.5169L96.6465 67.8318L94.3504 73.3751Z" fill="#3178C6" stroke="#3178C6" stroke-width="3" stroke-linejoin="round"/>
<path d="M89.5809 81.0506L95.405 81.3341L92.9143 76.0618L89.5809 81.0506Z" fill="#3178C6" stroke="#3178C6" stroke-width="3" stroke-linejoin="round"/>
<path d="M83.4056 87.6482L89.0624 89.0624L87.6482 83.4056L83.4056 87.6482Z" fill="#3178C6" stroke="#3178C6" stroke-width="3" stroke-linejoin="round"/>
<path d="M76.0618 92.9143L81.3341 95.4049L81.0506 89.5809L76.0618 92.9143Z" fill="#3178C6" stroke="#3178C6" stroke-width="3" stroke-linejoin="round"/>
<path d="M67.8318 96.6465L72.5169 100.118L73.3751 94.3504L67.8318 96.6465Z" fill="#3178C6" stroke="#3178C6" stroke-width="3" stroke-linejoin="round"/>
<path d="M59.0318 98.7014L62.9496 103.02L64.9165 97.5309L59.0318 98.7014Z" fill="#3178C6" stroke="#3178C6" stroke-width="3" stroke-linejoin="round"/>
<path d="M50 99L53 104L56 99H50Z" fill="#3178C6" stroke="#3178C6" stroke-width="3" stroke-linejoin="round"/>
<path d="M41.0835 97.5309L43.0504 103.02L46.9682 98.7014L41.0835 97.5309Z" fill="#3178C6" stroke="#3178C6" stroke-width="3" stroke-linejoin="round"/>
<path d="M32.6249 94.3504L33.4831 100.118L38.1682 96.6465L32.6249 94.3504Z" fill="#3178C6" stroke="#3178C6" stroke-width="3" stroke-linejoin="round"/>
<path d="M24.9494 89.5809L24.6659 95.405L29.9382 92.9143L24.9494 89.5809Z" fill="#3178C6" stroke="#3178C6" stroke-width="3" stroke-linejoin="round"/>
<path d="M18.3518 83.4056L16.9376 89.0624L22.5944 87.6482L18.3518 83.4056Z" fill="#3178C6" stroke="#3178C6" stroke-width="3" stroke-linejoin="round"/>
<path d="M13.0857 76.0618L10.5951 81.3341L16.4191 81.0506L13.0857 76.0618Z" fill="#3178C6" stroke="#3178C6" stroke-width="3" stroke-linejoin="round"/>
<path d="M9.3535 67.8318L5.88215 72.5169L11.6496 73.3751L9.3535 67.8318Z" fill="#3178C6" stroke="#3178C6" stroke-width="3" stroke-linejoin="round"/>
<path d="M7.2986 59.0318L2.97995 62.9496L8.46915 64.9165L7.2986 59.0318Z" fill="#3178C6" stroke="#3178C6" stroke-width="3" stroke-linejoin="round"/>
<path d="M7 50L2 53L7 56L7 50Z" fill="#3178C6" stroke="#3178C6" stroke-width="3" stroke-linejoin="round"/>
<path d="M8.46916 41.0835L2.97996 43.0504L7.29861 46.9682L8.46916 41.0835Z" fill="#3178C6" stroke="#3178C6" stroke-width="3" stroke-linejoin="round"/>
<path d="M11.6496 32.6249L5.88214 33.4831L9.35349 38.1682L11.6496 32.6249Z" fill="#3178C6" stroke="#3178C6" stroke-width="3" stroke-linejoin="round"/>
<path d="M16.4191 24.9494L10.5951 24.6659L13.0857 29.9382L16.4191 24.9494Z" fill="#3178C6" stroke="#3178C6" stroke-width="3" stroke-linejoin="round"/>
<path d="M22.5944 18.3518L16.9376 16.9376L18.3518 22.5944L22.5944 18.3518Z" fill="#3178C6" stroke="#3178C6" stroke-width="3" stroke-linejoin="round"/>
<path d="M29.9382 13.0857L24.6659 10.5951L24.9494 16.4191L29.9382 13.0857Z" fill="#3178C6" stroke="#3178C6" stroke-width="3" stroke-linejoin="round"/>
<path d="M38.1682 9.3535L33.4831 5.88215L32.6249 11.6496L38.1682 9.3535Z" fill="#3178C6" stroke="#3178C6" stroke-width="3" stroke-linejoin="round"/>
<path d="M46.9682 7.2986L43.0504 2.97995L41.0835 8.46915L46.9682 7.2986Z" fill="#3178C6" stroke="#3178C6" stroke-width="3" stroke-linejoin="round"/>
<path d="M56 7L53 2L50 7L56 7Z" fill="#3178C6" stroke="#3178C6" stroke-width="3" stroke-linejoin="round"/>
<path d="M64.9165 8.46915L62.9496 2.97995L59.0318 7.29861L64.9165 8.46915Z" fill="#3178C6" stroke="#3178C6" stroke-width="3" stroke-linejoin="round"/>
<path d="M73.3751 11.6496L72.5169 5.88215L67.8318 9.35349L73.3751 11.6496Z" fill="#3178C6" stroke="#3178C6" stroke-width="3" stroke-linejoin="round"/>
<path d="M81.0506 16.4191L81.3341 10.595L76.0618 13.0857L81.0506 16.4191Z" fill="#3178C6" stroke="#3178C6" stroke-width="3" stroke-linejoin="round"/>
<path d="M87.6482 22.5944L89.0624 16.9376L83.4056 18.3518L87.6482 22.5944Z" fill="#3178C6" stroke="#3178C6" stroke-width="3" stroke-linejoin="round"/>
<path d="M92.9143 29.9382L95.4049 24.6659L89.5809 24.9494L92.9143 29.9382Z" fill="#3178C6" stroke="#3178C6" stroke-width="3" stroke-linejoin="round"/>
<path d="M96.6465 38.1682L100.118 33.4831L94.3504 32.6249L96.6465 38.1682Z" fill="#3178C6" stroke="#3178C6" stroke-width="3" stroke-linejoin="round"/>
<path d="M98.7014 46.9682L103.02 43.0504L97.5309 41.0835L98.7014 46.9682Z" fill="#3178C6" stroke="#3178C6" stroke-width="3" stroke-linejoin="round"/>
<path d="M46 11L53 18L60 11H46Z" fill="#3178C6" stroke="#3178C6" stroke-width="6" stroke-linejoin="round"/>
<path d="M90.7812 33.3639L86.287 42.1844L95.1075 46.6787L90.7812 33.3639Z" fill="#3178C6" stroke="#3178C6" stroke-width="6" stroke-linejoin="round"/>
<path d="M83.3501 82.8642L73.5725 81.3156L72.0239 91.0932L83.3501 82.8642Z" fill="#3178C6" stroke="#3178C6" stroke-width="6" stroke-linejoin="round"/>
<path d="M33.9761 91.0932L32.4275 81.3156L22.6499 82.8642L33.9761 91.0932Z" fill="#3178C6" stroke="#3178C6" stroke-width="6" stroke-linejoin="round"/>
<path d="M10.8925 46.6787L19.713 42.1844L15.2187 33.3639L10.8925 46.6787Z" fill="#3178C6" stroke="#3178C6" stroke-width="6" stroke-linejoin="round"/>
<path d="M17.6323 50.744V38.072H53.0083V50.744H46.2403V44.168H24.4003V50.744H17.6323ZM26.1763 71V64.904H44.4643V71H26.1763ZM31.4563 67.112V41.432H39.2323V67.112H31.4563ZM75.2019 71.624C73.6659 71.624 72.1939 71.416 70.7859 71C69.4099 70.552 68.0819 69.944 66.8019 69.176C65.5219 68.408 64.2899 67.528 63.1059 66.536C61.9219 65.512 60.7699 64.44 59.6499 63.32L63.6819 63.752V70.952H56.9139V58.952L61.7139 58.712C62.5779 59.768 63.5539 60.712 64.6419 61.544C65.7299 62.376 66.8659 63.096 68.0499 63.704C69.2339 64.28 70.3859 64.728 71.5059 65.048C72.6579 65.368 73.7139 65.528 74.6739 65.528C75.4419 65.528 76.1139 65.448 76.6899 65.288C77.2659 65.096 77.7139 64.808 78.0339 64.424C78.3539 64.04 78.5139 63.576 78.5139 63.032C78.5139 62.52 78.3219 62.04 77.938 61.592C77.5539 61.144 76.9459 60.712 76.1139 60.296C75.3139 59.848 74.2419 59.4 72.8979 58.952C71.5539 58.472 69.9219 57.976 68.0019 57.464C65.4419 56.76 63.3459 55.912 61.7139 54.92C60.0819 53.928 58.8819 52.776 58.1139 51.464C57.3459 50.12 56.9619 48.584 56.9619 46.856C56.9619 44.904 57.5059 43.224 58.5939 41.816C59.6819 40.408 61.0739 39.32 62.7699 38.552C64.4979 37.784 66.3219 37.4 68.2419 37.4C70.1619 37.4 71.9379 37.704 73.5699 38.312C75.2339 38.888 76.7539 39.816 78.13 41.096C79.5059 42.344 80.7059 43.976 81.7299 45.992L78.13 45.32V38.072H84.8979V49.736L80.338 49.976C79.634 48.568 78.7219 47.384 77.6019 46.424C76.4819 45.464 75.2819 44.744 74.0019 44.264C72.7219 43.752 71.4579 43.496 70.2099 43.496C69.2179 43.496 68.3379 43.624 67.5699 43.88C66.8019 44.104 66.1939 44.44 65.7459 44.888C65.2979 45.336 65.0739 45.88 65.0739 46.52C65.0739 46.968 65.2179 47.384 65.5059 47.768C65.7939 48.12 66.2419 48.472 66.8499 48.824C67.4899 49.176 68.3379 49.544 69.3939 49.928C70.4499 50.28 71.7459 50.664 73.2819 51.08C75.7139 51.784 77.9379 52.616 79.9539 53.576C81.9699 54.504 83.5859 55.672 84.802 57.08C86.018 58.456 86.6259 60.168 86.6259 62.216C86.6259 64.2 86.1299 65.896 85.1379 67.304C84.1459 68.712 82.7859 69.784 81.058 70.52C79.3299 71.256 77.3779 71.624 75.2019 71.624Z" fill="#3178C6"/>
</g>
<defs>
<clipPath id="clip0_1_2">
<rect width="106" height="106" fill="white"/>
</clipPath>
</defs>
</svg>
